<?xml version="1.0" encoding="UTF-8"?>
<svg id="Layer_1" data-name="Layer 1" xmlns="http://www.w3.org/2000/svg" version="1.1" viewBox="0 0 93.88 90.35">
  <defs>
    <style>
      .cls-1 {
        fill: #231f20;
        stroke-width: 0px;
      }
    </style>
  </defs>
  <path class="cls-1" d="M46.87,84.37c-21.8,0-39.33-17.66-39.33-39.19S25.07,5.98,46.87,5.98s39.47,17.39,39.47,39.19-17.66,39.19-39.47,39.19ZM26.45,43.93c.14-6.21,1.1-11.45,2.76-16.56h-14.35c-2.76,4.97-4.28,10.63-4.55,16.56h16.15ZM29.21,62.98c-1.66-5.11-2.62-10.76-2.76-16.56H10.3c.28,5.93,1.79,11.59,4.55,16.56h14.35ZM42.46,8.47c-10.76,1.38-20.29,7.59-26.08,16.42h13.66c3.04-7.18,6.9-12.42,12.42-16.42ZM30.17,65.46h-13.8c5.8,8.83,15.32,15.18,26.36,16.42-6.21-4.83-9.94-10.07-12.56-16.42ZM32.11,27.37c-1.79,5.25-2.76,10.9-2.9,16.56h16.28v-16.56h-13.39ZM29.21,46.42c.14,5.66,1.1,11.32,2.9,16.56h13.39v-16.56h-16.28ZM45.49,8.88c-5.66,3.86-9.8,9.52-12.56,16.01h12.56V8.88ZM33.07,65.46c2.76,6.35,6.76,11.87,12.42,15.87v-15.87h-12.42ZM48.25,8.88v16.01h12.56c-3.17-7.45-7.04-12.14-12.56-16.01ZM64.54,43.93c-.14-5.66-1.1-11.45-2.9-16.56h-13.39v16.56h16.28ZM64.54,46.42h-16.28v16.56h13.39c1.93-5.66,2.76-11.04,2.9-16.56ZM60.67,65.46h-12.42v15.87c5.66-3.86,9.8-9.66,12.42-15.87ZM77.51,65.46h-13.94c-2.76,6.49-6.9,12.14-12.56,16.42,10.35-1.1,20.56-7.59,26.5-16.42ZM51.29,8.47c5.66,4.14,9.66,9.8,12.42,16.42h13.8c-5.93-8.97-15.59-15.18-26.22-16.42ZM83.58,43.93c-.28-6.21-1.93-11.59-4.55-16.56h-14.49c1.79,5.11,2.62,10.76,2.76,16.56h16.28ZM83.58,46.42h-16.28c-.14,5.8-1.1,11.45-2.76,16.56h14.49c3.17-6.07,4.28-10.76,4.55-16.56Z"/>
</svg>